# xmcd
#
# Track frame offsets: 
#        150
#        22832
#        43509
#        61025
#        78726
#        103506
#        120478
#        144253
#        157936
#        178341
#        206639
#        223745
#
# Disc length: 3181 seconds
#
# Revision: 0
# Processed by: cddbd v1.5.1PL0 Copyright (c) Steve Scherf et al.
# Submitted via: ExactAudioCopy v0.90b4
#
DISCID=9c0c6b0c
DTITLE=Blues Therapy - Doctor's Orders
DYEAR=2002
DGENRE=Blues
TTITLE0=Run Over
TTITLE1=Cold Sweat
TTITLE2=You've Been Talkin' 'Bout Me Baby
TTITLE3=Nasty Habits
TTITLE4=Hey Baby
TTITLE5=Divorce Blues
TTITLE6=Big Legged Woman
TTITLE7=She's My Lady
TTITLE8=Tupelo Honey
TTITLE9=Sick And Tired
TTITLE10=Look But Don't Touch
TTITLE11=You Gotta Do
EXTD=
EXTT0=
EXTT1=
EXTT2=
EXTT3=
EXTT4=
EXTT5=
EXTT6=
EXTT7=
EXTT8=
EXTT9=
EXTT10=
EXTT11=
PLAYORDER=
